<svg width="288" height="288" viewBox="0 0 288 288" fill="none" xmlns="http://www.w3.org/2000/svg">
<path fill-rule="evenodd" clip-rule="evenodd" d="M162.132 152.465C162.847 169.022 163.182 178.186 163.133 179.957C162.942 186.253 161.654 191.547 159.271 195.837C159.079 196.117 158.936 196.257 158.842 196.257C158.699 196.257 158.627 195.954 158.627 195.347C158.676 194.88 158.747 194.25 158.842 193.458C159.079 191.592 159.248 189.448 159.342 187.022C159.391 184.831 159.033 174.221 158.27 155.193C158.221 154.261 158.198 153.326 158.198 152.395C157.34 128.003 156.933 114.946 156.982 113.22C157.031 111.029 156.745 109.185 156.124 107.693C156.172 106.761 156.888 104.873 158.27 102.027C158.413 101.7 158.556 101.537 158.699 101.537C158.89 101.537 159.056 101.725 159.199 102.097C159.534 102.889 160.321 105.083 161.56 108.673C163.276 113.522 164.135 116.298 164.135 116.997C164.086 117.325 163.969 117.487 163.777 117.487C163.348 117.439 162.467 116.625 161.131 115.039C161.036 114.946 160.965 114.899 160.916 114.899C160.822 114.899 160.773 115.086 160.773 115.458C160.773 115.691 161.225 128.028 162.132 152.465Z" fill="#FF6106"/>
<path fill-rule="evenodd" clip-rule="evenodd" d="M73.6533 112.87C73.6533 112.822 73.7964 112.638 74.0825 112.31C75.4644 110.819 76.1568 109.814 76.1568 109.302C76.1568 108.835 75.9422 108.603 75.513 108.603C75.2755 108.603 75.061 108.661 74.8693 108.779C74.6776 108.894 74.5603 108.952 74.5116 108.952H74.4401L74.5116 108.533C74.7491 107.506 75.2755 106.994 76.0852 106.994C76.8005 106.994 77.1581 107.413 77.1581 108.253C77.1581 108.905 76.8835 109.63 76.337 110.422C75.7877 111.213 75.0839 111.913 74.2255 112.52C73.8908 112.752 73.702 112.87 73.6533 112.87Z" fill="#00A2B5"/>
<path fill-rule="evenodd" clip-rule="evenodd" d="M80.3054 192.129C80.3054 192.082 80.4485 191.897 80.7346 191.57C82.1165 190.078 82.8089 189.074 82.8089 188.561C82.8089 188.094 82.5943 187.862 82.1651 187.862C81.9276 187.862 81.7131 187.921 81.5214 188.038C81.3297 188.153 81.2124 188.212 81.1637 188.212H81.0922L81.1637 187.792C81.4012 186.765 81.9276 186.253 82.7373 186.253C83.4526 186.253 83.8102 186.673 83.8102 187.512C83.8102 188.164 83.5356 188.889 82.9891 189.681C82.4398 190.473 81.736 191.172 80.8776 191.779C80.5429 192.012 80.3541 192.129 80.3054 192.129Z" fill="#00A2B5"/>
<path fill-rule="evenodd" clip-rule="evenodd" d="M196.179 153.444C196.179 153.396 196.345 153.187 196.68 152.814C198.302 151.088 199.111 149.946 199.111 149.387C199.111 148.827 198.848 148.547 198.325 148.547C198.039 148.547 197.752 148.639 197.466 148.827L197.18 148.967L197.109 148.897L197.18 148.477C197.418 147.266 198.016 146.658 198.968 146.658C199.778 146.658 200.184 147.148 200.184 148.127C200.184 148.874 199.875 149.714 199.254 150.646C198.634 151.578 197.847 152.372 196.894 153.024C196.465 153.304 196.227 153.444 196.179 153.444Z" fill="#00A2B5"/>
<path fill-rule="evenodd" clip-rule="evenodd" d="M157.268 97.4099C157.268 97.27 157.506 96.8726 157.983 96.2206C160.272 93.0027 161.417 90.8565 161.417 89.7848V89.5749C161.274 88.7354 160.867 88.3157 160.201 88.3157C159.486 88.3157 158.936 88.5032 158.556 88.8753L157.983 89.2951C157.983 89.2475 157.912 89.2251 157.769 89.2251C157.818 89.0852 157.84 88.8054 157.84 88.3857C158.032 86.2394 158.962 85.0502 160.63 84.8179H161.059C162.204 84.8179 162.87 85.5874 163.062 87.1265L163.133 87.826C163.133 88.9453 162.776 90.2269 162.06 91.6735C161.202 93.4924 159.986 95.1237 158.413 96.5704C157.792 97.13 157.411 97.4099 157.268 97.4099Z" fill="#00A2B5"/>
<path fill-rule="evenodd" clip-rule="evenodd" d="M91.6066 158.97C91.4636 158.97 91.3921 158.783 91.3921 158.411C91.3921 157.759 91.0115 156.511 90.2476 154.67C89.4837 152.826 88.9601 151.905 88.674 151.905C88.4366 151.905 88.2935 151.975 88.2449 152.115C88.1962 152.255 88.0303 152.325 87.7442 152.325C87.3637 152.325 86.9088 152.081 86.3852 151.592C85.8616 151.102 85.5984 150.716 85.5984 150.436C85.5984 150.296 85.8244 149.854 86.2793 149.107C86.7314 148.36 87.006 147.987 87.1005 147.987C88.1962 147.987 89.1862 148.628 90.0702 149.913C90.9515 151.194 91.5838 152.884 91.9643 154.983V155.333H92.0358C92.0844 155.333 92.1073 155.31 92.1073 155.263C92.1073 155.215 92.156 155.123 92.2504 154.983C92.3934 153.724 92.8226 151.883 93.5379 149.456C94.3018 147.685 95.1115 146.798 95.9698 146.798C96.4476 146.798 96.8882 147.078 97.2945 147.638C97.6979 148.197 97.901 148.639 97.901 148.967C97.901 149.199 97.8295 149.563 97.6864 150.053C97.5434 150.542 97.3517 150.786 97.1142 150.786C97.0198 150.786 96.8052 150.576 96.4705 150.156C96.1357 149.736 95.7781 149.526 95.3976 149.526C94.6337 149.526 93.9184 151.345 93.2518 154.983C92.9657 156.57 92.6309 157.689 92.2504 158.341C92.0129 158.761 91.7983 158.97 91.6066 158.97Z" fill="#00A2B5"/>
<path fill-rule="evenodd" clip-rule="evenodd" d="M85.0261 131.478C84.8344 131.478 84.74 131.268 84.74 130.848C84.74 130.196 84.3709 128.948 83.6327 127.107C82.8917 125.263 82.3796 124.343 82.0935 124.343C81.856 124.343 81.7015 124.413 81.63 124.552C81.5585 124.692 81.3782 124.762 81.0921 124.762C80.7574 124.762 80.3282 124.519 79.8046 124.029C79.281 123.54 79.0178 123.153 79.0178 122.874C79.0178 122.734 79.2438 122.303 79.6988 121.581C80.1508 120.856 80.4255 120.495 80.5199 120.495C81.6157 120.495 82.6056 121.125 83.4897 122.384C84.3709 123.643 84.9774 125.322 85.3122 127.421L85.3837 127.561V127.77H85.4552C85.5039 127.77 85.5382 127.737 85.564 127.667C85.5868 127.597 85.6212 127.513 85.6698 127.421C85.8129 126.161 86.242 124.32 86.9573 121.894C87.6726 120.123 88.4823 119.236 89.3892 119.236C89.867 119.236 90.3076 119.516 90.7139 120.075C91.1173 120.635 91.3204 121.077 91.3204 121.404C91.3204 121.684 91.2489 122.012 91.1059 122.384C90.9628 122.943 90.7711 123.223 90.5336 123.223C90.4392 123.223 90.2246 123.013 89.8899 122.594C89.5552 122.174 89.1975 121.964 88.817 121.964C88.0531 121.964 87.3378 123.783 86.6712 127.421C86.099 130.126 85.5497 131.478 85.0261 131.478Z" fill="#00A2B5"/>
<path fill-rule="evenodd" clip-rule="evenodd" d="M145.395 140.292C151.641 143.418 157.506 144.512 162.99 143.58C165.517 143.58 167.974 142.671 170.358 140.852C171.024 140.34 171.359 138.334 171.359 134.836C171.359 132.597 170.764 123.993 169.571 109.022C168.521 93.9121 167.997 85.0502 167.997 82.4395C167.997 79.9686 167.591 77.9623 166.781 76.4233C166.781 75.4915 167.519 73.3229 168.999 69.9175C169.093 69.5453 169.213 69.3578 169.356 69.3578C169.499 69.3578 169.714 69.6153 170 70.1274C170.381 70.9192 171.31 73.2753 172.79 77.1928C172.884 77.4251 172.933 77.6126 172.933 77.7525C174.412 81.53 175.293 83.8861 175.579 84.8179C175.817 85.6098 175.937 86.1247 175.937 86.357C175.937 87.3839 174.815 86.7291 172.575 84.3982C172.289 84.026 172.146 84.166 172.146 84.8179C172.146 84.9578 172.695 91.6512 173.791 104.895C174.698 118.094 175.15 125.974 175.15 128.54C175.15 136.003 173.814 141.809 171.144 145.959C168.618 149.364 165.9 151.113 162.99 151.205C154.456 151.765 147.254 149.994 141.389 145.889L131.805 139.103C131.424 138.731 130.969 138.334 130.446 137.914C129.873 137.682 129.539 137.564 129.444 137.564C129.301 137.564 129.421 137.892 129.802 138.543C131.281 141.249 132.019 143.208 132.019 144.42C132.019 148.709 130.494 151.953 127.442 154.143C125.01 155.73 119.811 157.874 111.849 160.579L110.418 161.209C106.413 162.888 103.766 164.309 102.479 165.476C99.6663 167.435 95.7323 171.352 90.6768 177.229C87.624 180.587 84.5484 182.265 81.4498 182.265C78.9235 182.265 76.729 181.169 74.8693 178.978C72.7235 176.507 71.6506 173.569 71.6506 170.163C71.6506 165.499 73.6534 159.39 77.6589 151.835C78.088 151.043 78.4228 150.646 78.6603 150.646C78.8033 150.646 78.8748 150.786 78.8748 151.065C78.8748 151.717 78.0165 154.306 76.2999 158.83C74.5346 163.4 73.6534 166.993 73.6534 169.604C73.6534 171.562 74.1312 173.124 75.0839 174.291C76.1339 175.597 77.5387 176.249 79.304 176.249C82.4998 176.249 85.7414 174.688 89.0317 171.562L92.2504 167.855C93.2031 166.688 94.2045 165.524 95.2545 164.357C98.0669 161.326 101.669 158.643 106.055 156.312C108.581 155.005 113.042 153.256 119.431 151.065C123.817 149.479 126.869 148.175 128.586 147.148C129.396 146.728 129.682 146.146 129.444 145.399C127.965 141.202 122.1 135.793 111.849 129.17L85.8845 112.52C84.6914 111.868 83.4754 111.169 82.2366 110.422C81.9991 110.142 81.879 109.28 81.879 107.833C81.879 106.014 82.1422 104.078 82.6658 102.027C83.1893 99.7883 83.8588 98.4116 84.6685 97.8996C90.1046 93.9821 101.884 88.7578 120.003 82.2296C138.408 75.6062 150.545 72.296 156.41 72.296C158.127 72.296 159.32 72.5534 159.986 73.0655C160.653 73.7175 160.988 74.6968 160.988 76.0036C160.988 78.9893 158.722 82.7669 154.193 87.3363L151.403 89.7148C150.593 90.3668 149.781 91.0663 148.971 91.8135C146.204 94.4242 144.345 96.5228 143.392 98.1094C142.725 99.1364 142.271 99.6484 142.033 99.6484C141.89 99.6484 142.01 98.9265 142.391 97.4798C142.534 96.7327 143.272 95.3812 144.608 93.4224C145.801 91.6036 146.731 90.4144 147.398 89.8547C152.596 85.33 155.718 82.3471 156.768 80.9004V80.3408C156.768 79.5489 155.314 79.1516 152.404 79.1516C147.875 79.1516 136.955 82.2772 119.645 88.5256C102.336 94.9139 90.4851 100.116 84.0963 104.126C83.6671 104.405 83.7158 104.663 84.2394 104.895C89.8671 107.646 95.4691 110.469 101.048 113.36C114.258 120.355 125.917 127.258 136.025 134.066C139.078 136.117 142.199 138.194 145.395 140.292Z" fill="#FFB000"/>
<path fill-rule="evenodd" clip-rule="evenodd" d="M125.796 114.899C125.702 114.666 125.605 114.317 125.51 113.849L125.439 113.709C123.674 109.42 122.458 105.197 121.791 101.048C121.697 100.256 121.576 99.7883 121.433 99.6484C121.29 98.9964 120.884 98.3417 120.217 97.6897L122.435 93.5623C122.815 92.9104 123.15 92.583 123.436 92.583C123.579 92.583 123.914 92.9104 124.437 93.5623L130.017 100.628C130.826 101.56 131.232 102.214 131.232 102.587C131.232 102.959 131.018 103.146 130.589 103.146C129.922 103.146 128.729 102.704 127.012 101.817C127.536 104.523 128.68 107.903 130.446 111.961C130.826 112.987 132.139 114.082 134.38 115.248C136.669 116.555 139.481 117.605 142.82 118.396C144.156 118.816 144.751 119.538 144.608 120.565L143.392 125.602C143.249 126.161 142.511 126.161 141.175 125.602C137.741 124.063 133.498 123.293 128.443 123.293C121.482 123.293 113.159 126.279 103.48 132.248C101.334 133.554 99.26 134.858 97.2572 136.165L88.4594 142.041C84.74 144.14 81.3554 145.189 78.3026 145.189C75.1068 145.189 72.2944 144.07 69.8625 141.831C67.3361 139.5 66.0715 136.632 66.0715 133.227C66.0715 128.422 68.5521 122.244 73.5103 114.689C74.0339 114.037 74.4173 113.709 74.6548 113.709C74.7978 113.709 74.8693 113.779 74.8693 113.919C74.8693 114.711 73.7964 117.369 71.6506 121.894C69.5535 126.324 68.5034 129.917 68.5034 132.667C68.5034 134.626 69.1701 136.187 70.5062 137.354C71.6993 138.661 73.4159 139.313 75.6561 139.313C79.2811 139.313 82.6886 138.404 85.8845 136.585C89.9844 133.834 93.967 131.106 97.8294 128.4C104.361 124.203 110.49 120.937 116.212 118.606C120.598 116.927 123.865 116.088 126.011 116.088C125.868 115.808 125.796 115.411 125.796 114.899Z" fill="#FFB000"/>
<path fill-rule="evenodd" clip-rule="evenodd" d="M145.609 136.305C145.609 136.213 145.847 135.908 146.325 135.396C148.757 132.83 149.973 131.106 149.973 130.219C149.973 129.427 149.592 129.03 148.828 129.03C148.399 129.03 148.03 129.122 147.721 129.309C147.409 129.497 147.232 129.612 147.183 129.659L146.968 129.519C147.017 129.472 147.063 129.262 147.111 128.89C147.492 127.118 148.399 126.231 149.829 126.231C151.023 126.231 151.618 126.953 151.618 128.4C151.618 129.472 151.166 130.709 150.259 132.108C149.352 133.507 148.161 134.718 146.682 135.745C146.11 136.117 145.752 136.305 145.609 136.305Z" fill="#00A2B5"/>
<path fill-rule="evenodd" clip-rule="evenodd" d="M66 158.481C66 158.388 66.2632 158.061 66.7868 157.501C69.3618 154.703 70.6492 152.837 70.6492 151.905C70.6492 151.018 70.243 150.576 69.4333 150.576C68.9555 150.576 68.5521 150.693 68.2173 150.926C67.8826 151.158 67.6938 151.275 67.6451 151.275C67.5965 151.228 67.525 151.205 67.4305 151.205C67.4792 151.113 67.525 150.856 67.5736 150.436C68.0028 148.525 68.9812 147.568 70.5062 147.568C71.7937 147.568 72.4374 148.36 72.4374 149.946C72.4374 151.113 71.9482 152.453 70.9725 153.97C69.9941 155.484 68.718 156.779 67.1444 157.851C66.4778 158.271 66.0944 158.481 66 158.481Z" fill="#00A2B5"/>
<path fill-rule="evenodd" clip-rule="evenodd" d="M95.9697 84.3982C96.2072 83.3713 96.6621 82.2296 97.3287 80.9704C110.298 76.1659 123.628 71.2942 137.312 66.3498L137.956 66.2099H138.065C138.088 66.2099 138.099 66.2574 138.099 66.3498C138.099 66.4421 138.05 66.6072 137.956 66.8395C137.478 67.9587 137.135 68.6107 136.92 68.7982C136.706 68.9857 130.28 71.3865 117.642 76.0036C104.719 80.7605 97.4947 83.5587 95.9697 84.3982Z" fill="#00A2B5"/>
<path fill-rule="evenodd" clip-rule="evenodd" d="M144.894 116.438C144.702 116.438 144.608 116.18 144.608 115.668C144.608 114.829 144.13 113.231 143.177 110.878C142.225 108.522 141.555 107.343 141.175 107.343C140.889 107.343 140.711 107.436 140.64 107.623C140.568 107.811 140.339 107.903 139.959 107.903C139.53 107.903 138.969 107.59 138.279 106.96C137.587 106.331 137.241 105.827 137.241 105.455C137.241 105.315 137.527 104.766 138.099 103.812C138.671 102.855 139.029 102.377 139.172 102.377C140.602 102.377 141.879 103.194 143 104.825C144.119 106.456 144.894 108.603 145.323 111.261L145.395 111.401V111.751H145.466C145.515 111.751 145.538 111.728 145.538 111.681C145.538 111.633 145.586 111.493 145.681 111.261C145.918 109.674 146.491 107.321 147.398 104.196C148.35 101.957 149.377 100.838 150.473 100.838C151.094 100.838 151.666 101.199 152.19 101.923C152.713 102.645 152.977 103.216 152.977 103.636C152.977 103.963 152.882 104.417 152.691 105.001C152.499 105.583 152.238 105.874 151.904 105.874C151.809 105.874 151.546 105.617 151.117 105.105C150.688 104.593 150.236 104.335 149.758 104.335C148.757 104.335 147.827 106.644 146.968 111.261C146.634 113.312 146.23 114.736 145.752 115.528C145.418 116.135 145.132 116.438 144.894 116.438Z" fill="#00A2B5"/>
<path fill-rule="evenodd" clip-rule="evenodd" d="M112.206 198.145V198.075C112.206 198.028 112.398 197.748 112.779 197.236C114.59 194.905 115.497 193.366 115.497 192.619C115.497 191.872 115.162 191.5 114.495 191.5C114.115 191.5 113.757 191.639 113.422 191.919L112.993 192.199L112.85 192.129C112.899 192.037 112.922 191.849 112.922 191.57C113.113 189.891 113.9 189.051 115.282 189.051C116.189 189.051 116.69 189.633 116.784 190.8V191.15C116.784 191.989 116.498 192.969 115.926 194.088C115.21 195.395 114.258 196.536 113.065 197.516C112.635 197.888 112.349 198.098 112.206 198.145Z" fill="#00A2B5"/>
<path fill-rule="evenodd" clip-rule="evenodd" d="M134.88 156.312H134.594C133.687 156.125 133.235 155.635 133.235 154.843C133.235 153.536 134.022 152.137 135.596 150.646C136.789 149.479 137.836 148.735 138.743 148.407H138.886C138.98 148.407 139.052 148.43 139.1 148.477C139.1 148.617 139.006 148.757 138.814 148.897C138.099 149.317 137.312 149.957 136.454 150.822C135.596 151.684 135.118 152.347 135.023 152.814C135.261 152.674 135.501 152.604 135.739 152.604L136.168 152.674C136.978 152.814 137.384 153.234 137.384 153.934C137.384 154.773 136.978 155.425 136.168 155.892C135.739 156.172 135.31 156.312 134.88 156.312Z" fill="#00A2B5"/>
<path fill-rule="evenodd" clip-rule="evenodd" d="M135.953 95.3812C134.809 95.3812 134.237 94.774 134.237 93.5623C134.237 92.443 134.737 91.1615 135.739 89.7148C136.74 88.2681 137.647 87.3139 138.457 86.8466L138.671 86.7767C138.72 86.7767 138.754 86.7991 138.78 86.8466C138.803 86.8942 138.814 86.939 138.814 86.9865C138.814 87.0789 138.743 87.1964 138.6 87.3363C137.979 87.896 137.335 88.6767 136.668 89.6812C136.002 90.683 135.667 91.4413 135.667 91.9534C135.953 91.6735 136.311 91.5336 136.74 91.5336C137.741 91.5336 138.242 91.9534 138.242 92.7928C138.242 93.5847 137.993 94.2143 137.492 94.6816C136.992 95.1489 136.477 95.3812 135.953 95.3812Z" fill="#00A2B5"/>
<path fill-rule="evenodd" clip-rule="evenodd" d="M82.1859 157.685L82.2167 157.749C82.2573 157.832 82.1771 158.207 81.971 158.871C80.8806 162.376 80.5279 164.527 80.918 165.328C81.2873 166.086 81.8387 166.294 82.5696 165.953C82.957 165.773 83.2496 165.534 83.4461 165.235C83.6451 164.934 83.778 164.745 83.8424 164.663L84.0023 164.666L84.1223 165.075C84.681 167.086 84.27 168.415 82.8934 169.057C81.775 169.578 80.8859 169.165 80.2299 167.819C79.7167 166.765 79.5745 165.387 79.7982 163.68C80.022 161.973 80.5891 160.314 81.4943 158.705C81.8702 158.065 82.1007 157.725 82.1859 157.685Z" fill="#00A2B5"/>
<path fill-rule="evenodd" clip-rule="evenodd" d="M145.252 72.5058V72.4359C145.252 72.3883 145.395 72.2036 145.681 71.8762C147.254 70.2449 148.041 69.148 148.041 68.5883C148.041 68.0763 147.804 67.8188 147.326 67.8188C147.04 67.8188 146.754 67.9112 146.468 68.0987L146.11 68.1686L146.182 67.6789C146.468 66.5596 147.063 66 147.97 66C148.734 66 149.114 66.4673 149.114 67.3991C149.114 68.0987 148.817 68.8905 148.222 69.7776C147.624 70.6646 146.848 71.4341 145.895 72.0861C145.515 72.3659 145.3 72.5058 145.252 72.5058Z" fill="#00A2B5"/>
<path fill-rule="evenodd" clip-rule="evenodd" d="M153.763 176.669C153.048 176.669 152.525 176.227 152.19 175.34C151.998 174.873 151.904 174.313 151.904 173.661C151.904 172.914 152.024 172.074 152.261 171.143C152.642 169.556 153.143 168.392 153.763 167.645L153.906 167.505C154.049 167.505 154.121 167.575 154.121 167.715L154.049 167.995C153.669 168.742 153.357 169.696 153.12 170.863C152.928 171.61 152.834 172.192 152.834 172.612C152.834 172.939 152.882 173.194 152.977 173.381C153.311 172.774 153.835 172.472 154.55 172.472C155.122 172.472 155.503 172.752 155.695 173.311C155.838 173.639 155.909 173.963 155.909 174.291C155.909 174.663 155.815 175.038 155.623 175.41C155.337 175.97 154.956 176.342 154.479 176.529L153.763 176.669Z" fill="#00A2B5"/>
<path fill-rule="evenodd" clip-rule="evenodd" d="M150.545 164.567H150.473C150.473 164.474 150.593 164.147 150.831 163.587C151.738 161.301 152.19 159.718 152.19 158.83C152.19 158.598 152.167 158.411 152.118 158.271C151.927 157.804 151.64 157.571 151.26 157.571C150.736 157.571 150.307 157.804 149.972 158.271C149.781 158.503 149.663 158.621 149.615 158.621H149.472L149.329 157.291C149.329 156.125 149.807 155.38 150.759 155.053L151.331 154.913C151.998 154.913 152.525 155.38 152.905 156.312C153.097 156.779 153.191 157.314 153.191 157.921C153.191 159.832 152.525 161.769 151.188 163.727C150.854 164.239 150.639 164.519 150.545 164.567Z" fill="#00A2B5"/>
<path fill-rule="evenodd" clip-rule="evenodd" d="M113.851 216.543C113.185 216.496 112.85 216.124 112.85 215.424C112.85 214.817 113.136 214.095 113.708 213.256C114.281 212.416 114.804 211.856 115.282 211.577H115.354L115.497 211.647L115.425 211.856C115.045 212.184 114.661 212.637 114.281 213.222C113.9 213.804 113.708 214.235 113.708 214.515C113.851 214.375 114.066 214.305 114.352 214.305C114.876 214.305 115.139 214.537 115.139 215.004C115.139 215.472 114.996 215.844 114.71 216.124C114.424 216.404 114.138 216.543 113.851 216.543Z" fill="#00A2B5"/>
<path fill-rule="evenodd" clip-rule="evenodd" d="M138.385 210.387C138.385 210.295 138.6 210.015 139.029 209.548C141.126 207.309 142.176 205.818 142.176 205.071C142.176 204.371 141.841 204.022 141.175 204.022C140.794 204.022 140.471 204.103 140.21 204.268C139.947 204.43 139.793 204.534 139.744 204.581L139.601 204.511L139.673 204.161C139.959 202.435 140.746 201.573 142.033 201.573C143.083 201.573 143.607 202.203 143.607 203.462C143.607 204.394 143.215 205.479 142.428 206.716C141.641 207.95 140.602 208.988 139.315 209.828C138.791 210.2 138.48 210.387 138.385 210.387Z" fill="#00A2B5"/>
<path fill-rule="evenodd" clip-rule="evenodd" d="M100.404 176.319C100.691 175.248 101.143 174.103 101.763 172.891C106.962 170.98 112.301 169.044 117.785 167.085C127.848 163.4 132.972 161.559 133.164 161.559C133.258 161.559 133.307 161.629 133.307 161.769L133.164 162.258C132.686 163.378 132.305 164.055 132.019 164.287C123.056 167.505 112.515 171.515 100.404 176.319Z" fill="#00A2B5"/>
<path fill-rule="evenodd" clip-rule="evenodd" d="M111.205 110.911H111.062C106.484 109.839 103.243 108.765 101.334 107.693C99.8093 106.806 99.0454 105.547 99.0454 103.916L99.1169 103.076C99.5947 103.868 100.668 104.755 102.336 105.735C103.002 106.107 104.79 106.784 107.7 107.763C110.275 108.65 111.849 109.162 112.421 109.302L112.492 109.022C112.492 108.231 111.683 107.391 110.061 106.504C108.773 106.037 107.034 105.315 104.839 104.335C103.409 103.496 102.693 102.749 102.693 102.097C102.693 101.63 103.171 101.07 104.124 100.418C106.413 99.0188 108.796 98.3193 111.276 98.3193C112.327 98.3193 113.113 98.4592 113.637 98.739C114.16 99.0188 114.424 99.3462 114.424 99.7184C114.424 99.9982 114.304 100.256 114.066 100.488C113.399 101.14 112.97 101.467 112.779 101.467H112.707C112.707 101.187 112.444 100.79 111.92 100.278C111.683 100.091 111.133 99.9982 110.275 99.9982C108.224 99.9982 106.533 100.256 105.197 100.768C104.862 100.908 104.696 101.048 104.696 101.187C104.696 101.467 105.245 101.909 106.341 102.517C107.151 102.984 108.201 103.448 109.488 103.916C110.776 104.383 111.563 104.685 111.849 104.825C113.328 105.617 114.066 106.574 114.066 107.693C114.066 108.485 113.614 109.28 112.707 110.072C112.04 110.631 111.54 110.911 111.205 110.911Z" fill="#00A2B5"/>
<path fill-rule="evenodd" clip-rule="evenodd" d="M73.6533 135.605H73.5818C73.5818 135.513 73.7735 135.256 74.154 134.836C76.0623 132.83 77.0151 131.478 77.0151 130.778C77.0151 130.171 76.7061 129.869 76.0852 129.869C75.7505 129.869 75.4644 129.939 75.2269 130.079C74.9894 130.219 74.8464 130.289 74.7977 130.289H74.6547L74.7262 129.939C75.0123 128.4 75.7505 127.63 76.9435 127.63C77.8505 127.63 78.3026 128.213 78.3026 129.379C78.3026 130.219 77.9449 131.187 77.2297 132.284C76.5144 133.378 75.5845 134.324 74.4401 135.116C73.9623 135.443 73.702 135.605 73.6533 135.605Z" fill="#00A2B5"/>
<path fill-rule="evenodd" clip-rule="evenodd" d="M103.48 194.648C103.288 194.6 103.194 194.345 103.194 193.878C103.194 193.131 102.742 191.651 101.835 189.437C100.928 187.221 100.31 186.113 99.9753 186.113C99.6891 186.113 99.5118 186.194 99.4402 186.359C99.3687 186.522 99.1656 186.603 98.8308 186.603C98.4017 186.603 97.8666 186.312 97.2229 185.73C96.5792 185.145 96.2559 184.692 96.2559 184.364C96.2559 184.177 96.5305 183.642 97.0798 182.755C97.6263 181.868 97.9725 181.426 98.1156 181.426C99.4517 181.426 100.642 182.196 101.692 183.735C102.742 185.274 103.457 187.28 103.838 189.751C103.886 190.03 103.921 190.182 103.946 190.207C103.969 190.229 104.004 190.24 104.052 190.24L104.267 189.751C104.459 188.259 104.959 186.043 105.769 183.105C106.676 181.006 107.652 179.957 108.702 179.957C109.274 179.957 109.812 180.296 110.312 180.973C110.813 181.647 111.062 182.173 111.062 182.545C111.062 182.873 110.99 183.267 110.847 183.735C110.61 184.387 110.347 184.714 110.061 184.714C109.966 184.714 109.714 184.47 109.311 183.981C108.905 183.491 108.487 183.245 108.058 183.245C107.105 183.245 106.221 185.436 105.411 189.821C105.077 191.687 104.696 193.016 104.267 193.808C103.981 194.368 103.718 194.648 103.48 194.648Z" fill="#00A2B5"/>
<path fill-rule="evenodd" clip-rule="evenodd" d="M133.593 184.434C131.925 184.434 131.089 183.083 131.089 180.377C131.089 177.066 132.068 173.591 134.022 169.953C134.546 169.066 134.857 168.624 134.952 168.624C134.952 168.812 134.809 169.324 134.523 170.163C133.284 173.941 132.663 176.599 132.663 178.138C132.663 180.189 133.212 181.216 134.308 181.216C134.975 181.216 135.739 180.424 136.597 178.838L136.883 178.488C136.932 178.488 136.955 178.628 136.955 178.908C136.288 182.593 135.166 184.434 133.593 184.434Z" fill="#00A2B5"/>
<path fill-rule="evenodd" clip-rule="evenodd" d="M119.717 218.852L119.645 218.782C119.645 218.734 119.86 218.48 120.289 218.013C122.386 215.774 123.436 214.283 123.436 213.535C123.436 212.836 123.101 212.486 122.435 212.486C122.054 212.486 121.731 212.567 121.471 212.732C121.207 212.895 121.053 212.976 121.004 212.976L120.861 212.906L120.933 212.556C121.219 210.877 122.028 210.038 123.365 210.038C124.366 210.038 124.867 210.667 124.867 211.926C124.867 212.858 124.475 213.933 123.688 215.144C122.901 216.356 121.862 217.405 120.575 218.292C120.097 218.665 119.811 218.852 119.717 218.852Z" fill="#00A2B5"/>
<path fill-rule="evenodd" clip-rule="evenodd" d="M155.695 222L155.623 221.93C155.623 221.838 155.886 221.51 156.41 220.951C158.985 218.245 160.272 216.426 160.272 215.494C160.272 214.655 159.866 214.235 159.056 214.235C158.579 214.235 158.187 214.327 157.878 214.515C157.566 214.702 157.363 214.817 157.268 214.865L157.125 214.795L157.197 214.305C157.577 212.254 158.556 211.227 160.129 211.227C161.368 211.227 161.989 211.996 161.989 213.535C161.989 214.702 161.511 216.02 160.558 217.489C159.606 218.958 158.341 220.229 156.767 221.3C156.147 221.768 155.789 222 155.695 222Z" fill="#00A2B5"/>
<path fill-rule="evenodd" clip-rule="evenodd" d="M170.429 218.642C168.999 218.642 168.283 217.453 168.283 215.074C168.283 212.229 169.142 209.221 170.858 206.05C171.287 205.258 171.551 204.861 171.645 204.861C171.645 205.048 171.525 205.491 171.287 206.19C170.192 209.5 169.642 211.809 169.642 213.116C169.642 214.935 170.12 215.844 171.073 215.844C171.645 215.844 172.312 215.144 173.076 213.745C173.124 213.605 173.196 213.513 173.29 213.465L173.433 213.605L173.362 213.815C172.79 217.033 171.811 218.642 170.429 218.642Z" fill="#00A2B5"/>
<path fill-rule="evenodd" clip-rule="evenodd" d="M149.951 197.462C148.915 197.065 148.743 196.006 149.433 194.283C150.258 192.223 151.753 190.282 153.916 188.463C154.456 188.009 154.762 187.794 154.83 187.82C154.776 187.956 154.561 188.243 154.186 188.683C152.432 190.776 151.364 192.296 150.985 193.242C150.457 194.559 150.54 195.35 151.229 195.615C151.644 195.774 152.33 195.452 153.289 194.651C153.365 194.563 153.443 194.516 153.525 194.508L153.588 194.649L153.476 194.781C152.128 196.952 150.952 197.846 149.951 197.462Z" fill="#00A2B5"/>
<path fill-rule="evenodd" clip-rule="evenodd" d="M184.377 212.766C184.234 212.766 184.162 212.578 184.162 212.206C184.162 211.599 183.805 210.424 183.089 208.675C182.374 206.926 181.873 206.05 181.587 206.05C181.35 206.05 181.207 206.109 181.158 206.227C181.11 206.341 180.944 206.4 180.657 206.4C180.323 206.4 179.908 206.168 179.407 205.7C178.906 205.233 178.655 204.861 178.655 204.581C178.655 204.489 178.869 204.08 179.298 203.358C179.728 202.634 179.991 202.273 180.085 202.273C181.135 202.273 182.077 202.891 182.912 204.128C183.745 205.362 184.328 206.96 184.663 208.918C184.712 209.106 184.735 209.221 184.735 209.268H184.806C184.855 209.221 184.9 209.106 184.949 208.918C185.141 207.752 185.57 206.003 186.237 203.672C186.903 201.993 187.667 201.153 188.525 201.153C188.955 201.153 189.372 201.422 189.779 201.959C190.182 202.494 190.385 202.902 190.385 203.182C190.385 203.414 190.314 203.764 190.171 204.231C190.027 204.699 189.836 204.931 189.598 204.931C189.504 204.931 189.301 204.732 188.992 204.338C188.68 203.94 188.359 203.742 188.025 203.742C187.261 203.742 186.571 205.468 185.95 208.918C185.473 211.484 184.949 212.766 184.377 212.766Z" fill="#00A2B5"/>
<path fill-rule="evenodd" clip-rule="evenodd" d="M196.751 189.611C196.751 189.518 196.943 189.261 197.323 188.841C199.42 186.603 200.47 185.111 200.47 184.364C200.47 183.617 200.136 183.245 199.469 183.245C199.134 183.245 198.837 183.337 198.576 183.525C198.313 183.712 198.133 183.804 198.039 183.804L197.895 183.735L197.967 183.315C198.302 181.683 199.111 180.866 200.399 180.866C201.449 180.866 201.972 181.496 201.972 182.755C201.972 183.687 201.566 184.761 200.757 185.973C199.947 187.185 198.897 188.234 197.609 189.121C197.132 189.448 196.845 189.611 196.751 189.611Z" fill="#00A2B5"/>
<path fill-rule="evenodd" clip-rule="evenodd" d="M193.532 90.4143C192.58 90.4143 192.102 89.9023 192.102 88.8753C192.102 87.9883 192.554 86.9166 193.461 85.6574C194.225 84.5381 194.94 83.7686 195.607 83.3489H195.75C195.844 83.3489 195.893 83.3964 195.893 83.4888C195.893 83.5811 195.844 83.6763 195.75 83.7686C195.226 84.2359 194.688 84.8767 194.142 85.6938C193.592 86.5081 193.318 87.1265 193.318 87.5462C193.555 87.3587 193.867 87.2664 194.248 87.2664C195.057 87.2664 195.464 87.6161 195.464 88.3157C195.464 88.9229 195.249 89.4238 194.82 89.8211C194.391 90.2157 193.962 90.4143 193.532 90.4143Z" fill="#00A2B5"/>
<path fill-rule="evenodd" clip-rule="evenodd" d="M198.897 174.361C197.704 174.361 197.109 173.359 197.109 171.352C197.109 168.926 197.824 166.386 199.254 163.727L199.898 162.678L199.97 162.748C199.97 162.888 199.85 163.26 199.612 163.867C198.705 166.665 198.253 168.624 198.253 169.743C198.253 171.235 198.659 171.982 199.469 171.982C199.947 171.982 200.493 171.4 201.114 170.233L201.4 169.953V170.303C200.877 173.009 200.041 174.361 198.897 174.361Z" fill="#00A2B5"/>
<path fill-rule="evenodd" clip-rule="evenodd" d="M192.889 128.68C191.266 128.68 190.457 127.188 190.457 124.203C190.457 123.363 190.551 122.454 190.743 121.474C190.886 120.775 191.507 118.746 192.602 115.388C193.318 113.382 193.675 111.004 193.675 108.253L193.604 106.084C193.461 102.354 191.767 98.9013 188.525 95.7309C188.382 95.591 188.311 95.4511 188.311 95.3112C188.311 95.1713 188.74 94.3542 189.598 92.8628C189.693 92.7704 189.764 92.7229 189.813 92.7229C189.907 92.7229 190.005 92.7704 190.099 92.8628C192.102 94.774 193.438 96.5228 194.105 98.1094C194.628 99.461 194.986 101.63 195.177 104.615C195.272 105.315 195.32 105.967 195.32 106.574C195.32 108.905 194.748 111.773 193.604 115.178C192.459 118.584 191.887 120.985 191.887 122.384C191.887 124.39 192.482 125.392 193.675 125.392C194.342 125.392 195.106 124.6 195.964 123.013C196.107 122.734 196.227 122.594 196.322 122.594V123.083C195.607 126.813 194.462 128.68 192.889 128.68Z" fill="#00A2B5"/>
<path fill-rule="evenodd" clip-rule="evenodd" d="M168.069 162.468C166.59 162.468 165.851 161.769 165.851 160.369C165.851 159.39 166.447 157.921 167.64 155.962C168.833 154.004 169.834 153.024 170.644 153.024C171.359 153.024 171.991 153.34 172.541 153.97C173.087 154.6 173.362 155.38 173.362 156.312C173.362 157.711 172.85 159.088 171.825 160.439C170.798 161.791 169.548 162.468 168.069 162.468ZM169.142 159.6C171.096 159.6 172.074 159.04 172.074 157.921C172.026 156.569 171.096 155.892 169.285 155.892C168.999 155.892 168.558 156.312 167.963 157.152C167.365 157.991 167.067 158.573 167.067 158.9C167.259 159.368 167.949 159.6 169.142 159.6Z" fill="#00A2B5"/>
<path fill-rule="evenodd" clip-rule="evenodd" d="M163.777 172.122C164.063 171.003 164.515 169.813 165.136 168.554C170.192 166.828 175.699 164.917 181.659 162.818C181.945 162.726 182.16 162.678 182.303 162.678C182.397 162.678 182.446 162.726 182.446 162.818C182.446 162.958 182.397 163.12 182.303 163.308C181.825 164.427 181.444 165.104 181.158 165.336C176.151 167.063 170.358 169.324 163.777 172.122Z" fill="#00A2B5"/>
<path fill-rule="evenodd" clip-rule="evenodd" d="M167.64 187.372C167.591 187.372 167.545 187.302 167.497 187.162C167.591 186.603 167.688 186.079 167.783 185.59C167.877 185.1 168.69 184.294 170.215 183.175C168.306 182.523 167.354 181.683 167.354 180.656C167.354 179.537 167.854 178.396 168.856 177.229C170.764 174.99 172.36 173.871 173.648 173.871C174.792 173.871 175.365 174.5 175.365 175.76C175.365 176.459 175.056 177.299 174.435 178.278C174.386 178.37 174.315 178.418 174.22 178.418C174.171 178.418 174.1 178.348 174.006 178.208C173.625 177.461 173.147 177.089 172.575 177.089C172.097 177.089 171.551 177.299 170.93 177.718C170.309 178.138 170 178.535 170 178.908C170 179.28 170.381 179.666 171.144 180.063C171.908 180.458 172.526 180.656 173.004 180.656C173.433 180.656 174.197 180.354 175.293 179.747C175.817 179.375 176.343 179.048 176.867 178.768L177.582 178.278C178.203 177.998 178.56 177.858 178.655 177.858C178.749 177.906 178.798 177.998 178.798 178.138L178.655 178.698C178.417 179.769 178.105 180.469 177.725 180.796C176.294 181.636 173.17 183.665 168.355 186.883L167.64 187.372Z" fill="#00A2B5"/>
<path fill-rule="evenodd" clip-rule="evenodd" d="M175.865 153.444C175.771 153.444 175.722 153.422 175.722 153.374C175.722 153.142 176.675 152.487 178.583 151.415L186.094 147.078C189.764 144.887 192.508 142.858 194.319 140.992C191.936 139.78 190.743 138.496 190.743 137.144C190.743 135.513 191.507 134.019 193.032 132.667C194.225 131.595 195.249 131.058 196.107 131.058C197.443 131.058 198.11 131.99 198.11 133.856C198.11 135.208 197.824 136.725 197.252 138.404C198.491 139.103 199.255 139.685 199.541 140.152C199.541 140.804 198.991 141.901 197.895 143.44C197.609 142.973 196.871 142.391 195.678 141.691C194.342 143.51 192.625 145.167 190.528 146.658C188.191 148.385 186.022 149.666 184.019 150.506C183.59 150.738 181.301 151.603 177.153 153.094C176.532 153.326 176.103 153.444 175.865 153.444ZM195.821 137.704C195.964 137.237 196.036 136.772 196.036 136.305C196.036 134.953 195.63 134.276 194.82 134.276C194.534 134.276 194.142 134.405 193.641 134.662C193.14 134.917 192.889 135.186 192.889 135.465C192.889 136.025 193.867 136.772 195.821 137.704Z" fill="#00A2B5"/>
<path fill-rule="evenodd" clip-rule="evenodd" d="M106.985 148.267L106.77 148.197C104.816 146.706 102.813 145.329 100.762 144.07L100.691 143.93L103.194 138.613C103.386 138.334 103.552 138.194 103.695 138.194C103.981 138.194 104.948 138.742 106.593 139.839C108.238 140.933 109.322 141.714 109.846 142.181L111.849 138.194C111.992 137.914 112.158 137.774 112.349 137.774C112.636 137.774 113.757 138.426 115.711 139.733C117.665 141.04 118.644 141.809 118.644 142.041C118.644 142.928 117.785 144.747 116.069 147.498C115.926 147.685 115.783 147.778 115.64 147.778C115.545 147.778 115.474 147.755 115.425 147.708C113.708 146.496 111.754 145.189 109.56 143.79C108.845 145.421 108.129 146.798 107.414 147.917C107.271 148.15 107.128 148.267 106.985 148.267Z" fill="#00A2B5"/>
<path fill-rule="evenodd" clip-rule="evenodd" d="M185.95 163.308L185.736 163.238C183.782 161.791 181.779 160.417 179.728 159.11L179.656 158.97C179.656 158.878 180.514 157.104 182.231 153.654C182.374 153.374 182.54 153.234 182.732 153.234C182.969 153.234 183.925 153.783 185.593 154.879C187.261 155.974 188.334 156.754 188.812 157.222L190.814 153.234C191.006 152.954 191.172 152.814 191.315 152.814C191.601 152.814 192.734 153.466 194.714 154.773C196.691 156.08 197.681 156.849 197.681 157.082C197.681 157.969 196.8 159.787 195.034 162.538C194.891 162.726 194.771 162.818 194.677 162.818L194.391 162.748C192.674 161.536 190.743 160.23 188.597 158.83C187.215 161.816 186.331 163.308 185.95 163.308Z" fill="#00A2B5"/>
<path fill-rule="evenodd" clip-rule="evenodd" d="M122.149 187.442L121.934 187.372C119.98 185.926 117.977 184.552 115.926 183.245L115.854 183.105L118.358 177.788C118.549 177.509 118.715 177.369 118.858 177.369C119.144 177.369 120.277 178.035 122.257 179.364C124.234 180.693 125.224 181.448 125.224 181.636C125.224 182.523 124.343 184.342 122.578 187.092C122.435 187.325 122.292 187.442 122.149 187.442Z" fill="#00A2B5"/>
<path fill-rule="evenodd" clip-rule="evenodd" d="M182.303 148.127C182.16 148.08 182.088 147.73 182.088 147.078C182.088 146.566 182.137 145.866 182.231 144.979C182.517 142.928 182.66 140.55 182.66 137.844C182.66 135.373 182.137 126.953 181.087 112.59C180.037 98.2269 179.513 89.9946 179.513 87.896C179.513 85.4251 179.133 83.3964 178.369 81.8099C178.369 80.9228 179.084 78.8242 180.514 75.5139C180.706 75.0942 180.872 74.8843 181.015 74.8843C181.301 74.8843 182.423 77.495 184.377 82.7193C186.474 87.9883 187.524 91.0216 187.524 91.8135C187.524 92.1856 187.404 92.3731 187.166 92.3731C186.689 92.3731 185.687 91.5112 184.162 89.7848C184.068 89.6924 183.996 89.6448 183.948 89.6448C183.853 89.6448 183.805 89.8547 183.805 90.2744C183.805 90.5067 184.257 96.6879 185.164 108.813C186.071 120.937 186.523 127.98 186.523 129.939C186.523 135.863 185.593 141.084 183.733 145.609C183.018 147.24 182.54 148.08 182.303 148.127Z" fill="#FFB000"/>
<path fill-rule="evenodd" clip-rule="evenodd" d="M108.201 209.268C98.4246 209.268 91.6782 204.581 87.9588 195.207C87.2435 193.388 86.8859 191.057 86.8859 188.212C86.8859 183.455 87.6955 179.048 89.3178 174.99C89.5552 174.338 89.8185 174.011 90.1046 174.011C90.2476 174.011 90.3192 174.173 90.3192 174.5L90.2476 175.27C89.1032 179.887 88.531 182.943 88.531 184.434C88.531 188.304 89.8414 191.872 92.465 195.137C96.0899 199.474 101.311 201.643 108.129 201.643C114.089 201.643 120.432 200.266 127.155 197.516C132.543 195.325 137.407 192.571 141.747 189.261C145.609 186.323 147.541 184.202 147.541 182.895C147.541 182.708 146.754 181.054 145.18 177.928C143.226 174.291 141.796 170.745 140.889 167.295C140.508 166.128 140.067 165.336 139.567 164.917C139.066 164.497 138.814 164.055 138.814 163.587C138.814 163.26 139.172 161.396 139.887 157.991C140.03 157.384 140.196 157.082 140.388 157.082C140.625 157.082 140.889 157.222 141.175 157.501C142.176 158.573 144.299 160.697 147.541 163.867C148.064 164.379 148.327 164.777 148.327 165.056C148.327 165.429 148.018 165.616 147.398 165.616C146.731 165.616 145.73 165.406 144.393 164.987C144.488 165.406 145.561 167.645 147.612 171.702C149.28 175.013 150.116 177.858 150.116 180.237C150.116 184.994 149.043 188.584 146.897 191.01C143.415 194.927 138.362 198.727 131.733 202.413C123.293 206.982 115.448 209.268 108.201 209.268Z" fill="#FF6106"/>
<path fill-rule="evenodd" clip-rule="evenodd" d="M190.171 189.751C192.268 191.802 194.797 192.829 197.752 192.829C200.279 192.829 202.736 191.919 205.12 190.1C205.786 189.448 206.121 187.372 206.121 183.874C206.121 181.776 205.191 168.297 203.332 143.44C201.472 118.536 200.542 104.777 200.542 102.167C200.542 99.6959 200.136 97.6896 199.326 96.1506C199.326 95.2188 200.064 93.1202 201.543 89.8547C201.686 89.4825 201.807 89.295 201.901 89.295C202.187 89.295 202.402 89.4825 202.545 89.8547C202.925 90.7865 203.927 93.1425 205.549 96.9201C206.979 101.07 207.909 103.613 208.338 104.545C208.481 105.337 208.553 105.852 208.553 106.084C208.553 107.251 207.48 106.596 205.334 104.126C205.048 103.753 204.905 103.893 204.905 104.545C204.905 104.685 205.715 116.275 207.337 139.313C209.054 162.351 209.912 175.178 209.912 177.788C209.912 185.111 208.576 190.917 205.906 195.207C203.666 198.705 200.948 200.454 197.752 200.454C194.94 200.454 192.007 199.217 188.955 196.746C187.332 195.439 186.071 194.018 185.164 192.479L176.58 196.186C172.575 197.726 169.571 198.962 167.568 199.894C163.706 201.713 161.036 203.204 159.557 204.371C156.888 206.33 153.025 210.178 147.97 215.914C144.917 219.412 141.867 221.16 138.814 221.16C136.145 221.16 133.879 219.994 132.019 217.663C130.017 215.332 129.015 212.464 129.015 209.058C129.015 204.394 130.946 198.285 134.809 190.73C135.189 189.938 135.524 189.541 135.81 189.541C135.953 189.541 136.025 189.611 136.025 189.751C136.025 190.498 135.144 193.156 133.378 197.726C131.662 202.295 130.803 205.888 130.803 208.499C130.803 210.457 131.281 212.019 132.234 213.186C133.284 214.492 134.737 215.144 136.597 215.144C139.793 215.144 142.986 213.583 146.182 210.457C147.375 209.011 148.565 207.637 149.758 206.33L152.619 203.182C155.243 200.196 158.77 197.538 163.205 195.207C165.731 193.76 170.192 191.732 176.58 189.121L182.946 186.603C182.039 184.132 181.587 181.658 181.587 179.187C181.587 175.41 182.182 172.354 183.376 170.023C184.569 167.645 186.094 166.456 187.953 166.456C189.527 166.456 191.123 167.832 192.746 170.583C194.082 173.054 194.748 175.27 194.748 177.229C194.748 182.313 193.223 186.485 190.171 189.751ZM186.308 185.064C187.404 184.596 188.669 183.874 190.099 182.895C191.816 181.776 192.674 180.984 192.674 180.517C192.674 179.677 191.97 178.348 190.565 176.529C189.158 174.71 187.93 173.801 186.88 173.801C186.071 173.801 185.284 174.279 184.52 175.236C183.756 176.191 183.376 177.111 183.376 177.998C183.376 178.745 183.782 180.027 184.591 181.846C185.355 183.477 185.928 184.552 186.308 185.064Z" fill="#FF6106"/>
<path fill-rule="evenodd" clip-rule="evenodd" d="M216.85 179.537C216.658 179.537 216.564 179.235 216.564 178.628C216.564 178.116 216.636 177.369 216.779 176.389C217.016 174.383 217.136 172.004 217.136 169.254C217.136 166.828 216.613 158.433 215.563 144.07C214.513 129.707 213.989 121.452 213.989 119.306C213.989 116.88 213.609 114.876 212.845 113.29C212.845 112.403 213.56 110.282 214.99 106.924C215.182 106.552 215.371 106.364 215.563 106.364C215.657 106.364 215.826 106.574 216.063 106.994C216.444 107.881 217.411 110.318 218.962 114.305C220.509 118.293 221.428 120.753 221.714 121.684C221.906 122.384 222 122.921 222 123.293C222 123.621 221.906 123.783 221.714 123.783C221.236 123.783 220.235 122.921 218.71 121.195L218.495 121.055C218.352 121.055 218.281 121.287 218.281 121.754C218.281 121.942 218.733 128.109 219.64 140.259C220.547 152.406 220.999 159.438 220.999 161.349C220.999 167.317 220.092 172.542 218.281 177.019C217.614 178.698 217.136 179.537 216.85 179.537Z" fill="#FF6106"/>
</svg>
